/* XPM */
static char * cl_xpm[] = {
"40 40 9 1",
" 	c None",
".	c #55aa55",
"X	c #88aa88",
"o	c #005500",
"O	c red",
"+	c #ffdddd",
"@	c #ffaaaa",
"#	c #dd0000",
"$	c #aa0000",
"                                        ",
"                                        ",
"                                        ",
"                                        ",
"                           ..           ",
"                         .X.            ",
"                      ...X.             ",
"                     .XXX.              ",
"                     X...               ",
"                     o                  ",
"                    o                   ",
"            OOOOOOO o +OOOOOO           ",
"           OOO+@@OOOo+@@OOOOOO          ",
"          OO+@@OOOOOO@@OOOOOOO#         ",
"         OO+@OOOOOOOOOOOOOOOOO#$        ",
"         O+@OOOOOOOOOOOOOOOOOO#$        ",
"         O+@OOOOOOOOOOOOOOOOO##$        ",
"         O@OOOOOOOOOOOOOOOOOO##$        ",
"         OOOOOOOOOOOOOOOOOOO###$        ",
"         OOOOOOOOOOOOOOOOOOO###$        ",
"         OOOOOOOOOOOOOOOOOOO##$$        ",
"         OOOOOOOOOOOOOOOOOO##$$$        ",
"         OOOOOOOOOOO#OOOOO###$$$        ",
"         OOOOOOOOOOO#OOOOO##$$$$        ",
"         OOOOOOOOOOO#OOOO##$$$$$        ",
"          OOOOOOOOOO#OOOO##$$$$         ",
"          OOOOOOOOO##OOO##$$$$$         ",
"          OOOOOOOOO#OOO###$$$$$         ",
"           OOOOOOO##OO###$$$$$          ",
"           OOOOOO##$ ###$$$$$$          ",
"            OO####$   $$$$$$$           ",
"              #$$       $$$             ",
"                                        ",
"                                        ",
"                                        ",
"                                        ",
"                                        ",
"                                        ",
"                                        ",
"                                        "};
