/* XPM */
static char * cl_xpm[] = {
"40 40 10 1",
" 	c #429137",
".	c black",
"X	c #55aa55",
"o	c #88aa88",
"O	c #005500",
"+	c red",
"@	c #ffdddd",
"#	c #ffaaaa",
"$	c #dd0000",
"%	c #aa0000",
"                                        ",
"                                        ",
"                                        ",
"                           ...          ",
"                         ..XX.          ",
"                      ...XoX.           ",
"                     .XXXoX.            ",
"                    .XoooX.             ",
"                    .oXXX.              ",
"                   ..O...               ",
"            ........O........           ",
"          ..+++++++.O.@++++++..         ",
"         ..+++@##+++O@##++++++..        ",
"         .++@##++++++##+++++++$.        ",
"        .++@#+++++++++++++++++$%.       ",
"        .+@#++++++++++++++++++$%.       ",
"        .+@#+++++++++++++++++$$%.       ",
"        .+#++++++++++++++++++$$%.       ",
"        .+++++++++++++++++++$$$%.       ",
"        .+++++++++++++++++++$$$%.       ",
"        .+++++++++++++++++++$$%%.       ",
"        .++++++++++++++++++$$%%%.       ",
"        .+++++++++++$+++++$$$%%%.       ",
"        .+++++++++++$+++++$$%%%%.       ",
"        .+++++++++++$++++$$%%%%%.       ",
"         .++++++++++$++++$$%%%%.        ",
"         .+++++++++$$+++$$%%%%%.        ",
"         .+++++++++$+++$$$%%%%%.        ",
"          .+++++++$$++$$$%%%%%.         ",
"          .++++++$$%.$$$%%%%%%.         ",
"           .++$$$$%. .%%%%%%%.          ",
"            ..$%%..   ..%%%..           ",
"              ...       ...             ",
"                                        ",
"                                        ",
"                                        ",
"                                        ",
"                                        ",
"                                        ",
"                                        "};
