/* XPM */
static char * XFACE[] = {
"40 40 2 1",
"b c #000000",
"p c #ff00ff",
"bbbbbbbbbbbbbbbbbbbbpppppppppppppppppppp"
"bbbbbbbbbbbbbbbbbbbbpppppppppppppppppppp",
"bbbbbbbbbbbbbbbbbbbbpppppppppppppppppppp",
"bbbbbbbbbbbbbbbbbbbbpppppppppppppppppppp",
"bbbbbbbbbbbbbbbbbbbbpppppppppppppppppppp",
"bbbbbbbbbbbbbbbbbbbbpppppppppppppppppppp",
"bbbbbbbbbbbbbbbbbbbbpppppppppppppppppppp",
"bbbbbbbbbbbbbbbbbbbbpppppppppppppppppppp",
"bbbbbbbbbbbbbbbbbbbbpppppppppppppppppppp",
"bbbbbbbbbbbbbbbbbbbbpppppppppppppppppppp",
"bbbbbbbbbbbbbbbbbbbbpppppppppppppppppppp",
"bbbbbbbbbbbbbbbbbbbbpppppppppppppppppppp",
"bbbbbbbbbbbbbbbbbbbbpppppppppppppppppppp",
"bbbbbbbbbbbbbbbbbbbbpppppppppppppppppppp",
"bbbbbbbbbbbbbbbbbbbbpppppppppppppppppppp",
"bbbbbbbbbbbbbbbbbbbbpppppppppppppppppppp",
"bbbbbbbbbbbbbbbbbbbbpppppppppppppppppppp",
"bbbbbbbbbbbbbbbbbbbbpppppppppppppppppppp",
"bbbbbbbbbbbbbbbbbbbbpppppppppppppppppppp",
"bbbbbbbbbbbbbbbbbbbbpppppppppppppppppppp",
"bbbbbbbbbbbbbbbbbbbbpppppppppppppppppppp",
"ppppppppppppppppppppbbbbbbbbbbbbbbbbbbbb",
"ppppppppppppppppppppbbbbbbbbbbbbbbbbbbbb",
"ppppppppppppppppppppbbbbbbbbbbbbbbbbbbbb",
"ppppppppppppppppppppbbbbbbbbbbbbbbbbbbbb",
"ppppppppppppppppppppbbbbbbbbbbbbbbbbbbbb",
"ppppppppppppppppppppbbbbbbbbbbbbbbbbbbbb",
"ppppppppppppppppppppbbbbbbbbbbbbbbbbbbbb",
"ppppppppppppppppppppbbbbbbbbbbbbbbbbbbbb",
"ppppppppppppppppppppbbbbbbbbbbbbbbbbbbbb",
"ppppppppppppppppppppbbbbbbbbbbbbbbbbbbbb",
"ppppppppppppppppppppbbbbbbbbbbbbbbbbbbbb",
"ppppppppppppppppppppbbbbbbbbbbbbbbbbbbbb",
"ppppppppppppppppppppbbbbbbbbbbbbbbbbbbbb",
"ppppppppppppppppppppbbbbbbbbbbbbbbbbbbbb",
"ppppppppppppppppppppbbbbbbbbbbbbbbbbbbbb",
"ppppppppppppppppppppbbbbbbbbbbbbbbbbbbbb",
"ppppppppppppppppppppbbbbbbbbbbbbbbbbbbbb",
"ppppppppppppppppppppbbbbbbbbbbbbbbbbbbbb",
"ppppppppppppppppppppbbbbbbbbbbbbbbbbbbbb",
"ppppppppppppppppppppbbbbbbbbbbbbbbbbbbbb"
};